<?xml version="1.0" encoding="UTF-8" standalone="no"?>
<!DOCTYPE svg PUBLIC "-//W3C//DTD SVG 1.1//EN" "http://www.w3.org/Graphics/SVG/1.1/DTD/svg11.dtd">
<svg width="100%" height="100%" viewBox="0 0 1254 600" version="1.1" xmlns="http://www.w3.org/2000/svg" xmlns:xlink="http://www.w3.org/1999/xlink" xml:space="preserve" xmlns:serif="http://www.serif.com/" style="fill-rule:evenodd;clip-rule:evenodd;stroke-linejoin:round;stroke-miterlimit:2;">
    <g transform="matrix(1.224609,0,0,1.224609,0,-327)">
        <path d="M888.37,635.587C884.392,633.115 864.55,638.486 864.145,603.503C863.66,561.702 865.295,390.063 863.136,379.571C859.068,359.797 844.971,368.996 846.784,364.548C847.297,363.287 853.246,362.278 878.591,350.703C883.606,348.413 882.573,352.029 882.565,357.499C882.534,377.259 882.195,591.845 882.653,604.496C882.846,609.853 882.745,628.117 898.503,630.477C906.485,631.672 918.246,624.149 914.43,629.46C912.793,631.74 854.668,656.873 809.721,634.097C798.818,628.572 789.871,617.228 789.129,600.535C788.999,597.6 789.941,594.874 787.726,596.846C784.261,599.933 764.768,629.084 720.494,631.346C660.12,634.432 638.299,571.097 692.242,540.043C736.33,514.663 790.466,517.388 785.562,491.488C780.354,463.985 744.101,450.819 713.689,466.835C689.646,479.498 689.434,499.828 685.086,494.772C683.894,493.387 695.862,455.871 743.504,454.937C772.831,454.361 806.492,471.36 807.169,519.511C808.343,603.075 799.966,622.097 830.253,635.993C848.721,644.467 874.128,639.18 886.354,637.044C887.677,636.813 887.569,636.633 888.37,635.587ZM788.222,505.655C787.178,505.615 787,505.148 786.246,506.122C774.648,521.092 699.994,526.881 683.9,567.681C668.089,607.764 710.433,641.575 758.38,616.259C768.106,611.123 788.906,595.821 788.94,585.501C789.161,516.855 788.756,512.02 788.222,505.655Z" style="fill:rgb(140,120,93);"/>
    </g>
    <g transform="matrix(1.224609,0,0,1.224609,0,-327)">
        <path d="M493.677,613.681C493.251,614.053 474.464,635.182 442.499,630.506C412.279,626.085 390.789,601.55 390.565,568.5C389.98,482.072 394.67,474.409 377.466,471.578C372.112,470.697 379.717,469.294 405.278,457.013C406.356,456.495 408.567,454.906 408.571,458.497C408.691,582.034 406.324,585.733 417.894,603.247C438.925,635.081 486.096,627.957 504.254,593.373C505.267,591.445 505.197,591.382 505.238,498.502C505.247,478.677 504.446,473.675 492.487,471.533C487.299,470.604 501.193,465.647 504.361,464.198C520.559,456.785 522.502,453.921 522.732,457.431C523.711,472.324 520.862,601.187 524.465,613.509C530.157,632.975 548.647,627.932 541.413,631.257C540.085,631.868 529.546,631.094 528.516,631.018C503.308,629.165 506.999,599.492 504.572,600.754C503.373,601.378 504.748,602.597 493.677,613.681Z" style="fill:rgb(125,137,87);"/>
    </g>
    <g transform="matrix(1.224609,0,0,1.224609,0,-327)">
        <path d="M665.544,451.439C662.188,451.274 648.046,452.681 646.528,452.832C599.278,457.532 587.909,498.017 587.868,520.499C587.727,597.767 587.62,597.76 587.969,604.468C589.445,632.795 602.474,626.684 605.523,629.475C608.651,632.34 603.567,630.861 552.538,631.315C551.026,631.329 550.665,629.508 552.313,629.153C565.722,626.266 569.608,620.724 569.649,597.5C569.665,588.94 569.828,497.844 569.583,490.497C568.844,468.371 557.417,472.958 555.603,471.369C553.728,469.727 559.292,468.237 559.362,468.207C583.629,457.814 583.376,457.359 585.492,456.48C588.733,455.135 587.847,461.285 587.85,478.493C587.854,493.59 586.358,505.053 589.038,496.236C593.427,481.799 592.559,481.382 600.989,468.854C622.992,436.156 643.207,432.141 670.452,435.833C697.209,439.459 697.344,436.714 699.64,437.151C702.112,437.622 697.953,440.882 697.945,440.89C664.302,478.96 643.054,469.881 632.404,466.822C626.771,465.204 621.323,465.508 623.638,463.635C630.894,457.768 656.759,455.177 664.796,452.602C666.014,451.852 666.092,451.914 666.112,451.792C666.148,451.572 665.508,451.659 665.544,451.439Z" style="fill:rgb(126,137,89);"/>
    </g>
    <g transform="matrix(1.224609,0,0,1.224609,0,-327)">
        <path d="M324.643,520.438C333.394,543.047 341.099,558.511 336.413,553.73C320.428,537.417 309.72,533.239 306.566,525.474C300.033,509.396 246.709,376.928 246.399,376.749C245.155,376.033 241.373,388.175 226.776,424.619C201.993,486.496 164.785,582.712 159.459,596.484C152.79,613.731 156.88,625.695 168.54,628.386C173.677,629.572 174.808,629.095 174.208,630.45C173.323,632.453 168.399,630.23 121.517,631.347C119.334,631.399 119.596,629.545 120.346,629.308C122.177,628.729 140.745,629.78 153.281,597.412C163.916,569.954 250.498,351.276 250.838,350.695C251.987,348.736 255.285,349.099 256.067,350.737C261.263,361.618 260.547,361.848 312.497,490.501C319.902,508.84 319.869,508.829 320.935,511.303C321.247,512.027 321.839,513.401 324.643,520.438Z" style="fill:rgb(127,139,91);"/>
    </g>
    <g transform="matrix(1.224609,0,0,1.224609,0,-327)">
        <path d="M309.211,561.693C306.889,560.104 306.452,560.867 278.791,544.028C256.421,530.411 232.408,523.675 204.615,536.722C190.307,543.439 185.895,552.661 184.448,550.521C183.554,549.196 212.919,504.847 258.534,512.246C302.503,519.378 322.515,558.118 364.687,579.336C365.122,579.554 365.852,579.47 366.022,579.926C366.146,580.256 364.981,580.121 365.104,580.451L364.471,581.333C298.072,574.76 289.962,591.658 243.831,557.069C213.855,534.593 203.396,550.677 204.166,544.43C204.251,543.741 215.962,538.135 223.554,536.865C262.306,530.382 287.394,556.209 308.514,563.079C308.964,562.865 308.937,563.381 309.418,563.153C309.524,563.102 309.403,563.045 309.211,561.693Z" style="fill:rgb(125,137,88);"/>
    </g>
    <g transform="matrix(1.224609,0,0,1.224609,0,-327)">
        <path d="M352.433,587.538C367.069,625.035 378.198,626.123 388.377,628.906C397.286,631.341 383.005,631.099 382.504,631.09C362.532,630.751 350.205,630.632 335.232,592.604C333.304,587.706 331.276,587.054 333.703,585.912C334.232,585.664 343.62,585.733 347.481,585.962C350.241,586.126 350.507,585.502 352.433,587.538Z" style="fill:rgb(126,137,89);"/>
    </g>
    <g transform="matrix(1.224609,0,0,1.224609,0,-327)">
        <path d="M309.211,561.693C309.403,563.045 309.524,563.102 309.418,563.153C308.937,563.381 308.964,562.865 308.514,563.079C308.746,562.617 308.978,562.155 309.211,561.693Z" style="fill:rgb(136,145,105);"/>
    </g>
    <g transform="matrix(1.224609,0,0,1.224609,0,-327)">
        <path d="M365.104,580.451C365.322,581.05 365.831,580.444 366.053,581.056C366.457,582.169 365.562,581.142 364.471,581.333L365.104,580.451Z" style="fill:rgb(208,213,197);"/>
    </g>
    <g transform="matrix(1.224609,0,0,1.224609,0,-327)">
        <path d="M665.544,451.439C665.508,451.659 666.148,451.572 666.112,451.792C666.092,451.914 666.014,451.852 664.796,452.602L665.544,451.439Z" style="fill:rgb(143,153,110);"/>
    </g>
</svg>
